<?xml version="1.0" encoding="UTF-8"?>
<svg width="125px" height="31px" viewBox="0 0 125 31" version="1.1" xmlns="http://www.w3.org/2000/svg" xmlns:xlink="http://www.w3.org/1999/xlink">
    <!-- Generator: Sketch 50.2 (55047) - http://www.bohemiancoding.com/sketch -->
    <title>Group</title>
    <desc>Created with Sketch.</desc>
    <defs>
        <polygon id="path-1" points="0.103690286 0.0298595469 29.6645332 0.0298595469 29.6645332 29.5909091 0.103690286 29.5909091"></polygon>
        <path d="M0.104272727,14.6500364 C0.0157818182,22.8126182 6.56129091,29.5012909 14.7235909,29.5897818 C22.8861727,29.6785545 29.5751273,23.1333273 29.6636182,14.9707455 C29.7521091,6.80816364 23.2068818,0.119490909 15.0443,0.0307181818 C14.9899091,0.0301545455 14.9349545,0.0298727273 14.8808455,0.0298727273 C6.7921,0.0295909091 0.1922,6.54184545 0.104272727,14.6500364" id="path-3"></path>
        <path d="M0.104272727,14.6500364 C0.0157818182,22.8126182 6.56129091,29.5012909 14.7235909,29.5897818 C22.8861727,29.6785545 29.5751273,23.1333273 29.6636182,14.9707455 C29.7521091,6.80816364 23.2068818,0.119490909 15.0443,0.0307181818 C14.9899091,0.0301545455 14.9349545,0.0298727273 14.8808455,0.0298727273 C6.7921,0.0295909091 0.1922,6.54184545 0.104272727,14.6500364" id="path-5"></path>
        <path d="M0.104272727,14.6500364 C0.0157818182,22.8126182 6.56129091,29.5012909 14.7235909,29.5897818 C22.8861727,29.6785545 29.5751273,23.1333273 29.6636182,14.9707455 C29.7521091,6.80816364 23.2068818,0.119490909 15.0443,0.0307181818 C14.9899091,0.0301545455 14.9349545,0.0298727273 14.8808455,0.0298727273 C6.7921,0.0295909091 0.1922,6.54184545 0.104272727,14.6500364" id="path-7"></path>
        <path d="M0.104272727,14.6500364 C0.0157818182,22.8126182 6.56129091,29.5012909 14.7235909,29.5897818 C22.8861727,29.6785545 29.5751273,23.1333273 29.6636182,14.9707455 C29.7521091,6.80816364 23.2068818,0.119490909 15.0443,0.0307181818 C14.9899091,0.0301545455 14.9349545,0.0298727273 14.8808455,0.0298727273 C6.7921,0.0295909091 0.1922,6.54184545 0.104272727,14.6500364" id="path-9"></path>
        <path d="M0.104272727,14.6500364 C0.0157818182,22.8126182 6.56129091,29.5012909 14.7235909,29.5897818 C22.8861727,29.6785545 29.5751273,23.1333273 29.6636182,14.9707455 C29.7521091,6.80816364 23.2068818,0.119490909 15.0443,0.0307181818 C14.9899091,0.0301545455 14.9349545,0.0298727273 14.8808455,0.0298727273 C6.7921,0.0295909091 0.1922,6.54184545 0.104272727,14.6500364 Z" id="path-11"></path>
        <path d="M0.104272727,14.6500364 C0.0157818182,22.8126182 6.56129091,29.5012909 14.7235909,29.5897818 C22.8861727,29.6785545 29.5751273,23.1333273 29.6636182,14.9707455 C29.7521091,6.80816364 23.2068818,0.119490909 15.0443,0.0307181818 C14.9899091,0.0301545455 14.9349545,0.0298727273 14.8808455,0.0298727273 C6.7921,0.0295909091 0.1922,6.54184545 0.104272727,14.6500364 Z" id="path-13"></path>
        <path d="M0.104272727,14.6500364 C0.0157818182,22.8126182 6.56129091,29.5012909 14.7235909,29.5897818 C22.8861727,29.6785545 29.5751273,23.1333273 29.6636182,14.9707455 C29.7521091,6.80816364 23.2068818,0.119490909 15.0443,0.0307181818 C14.9899091,0.0301545455 14.9349545,0.0298727273 14.8808455,0.0298727273 C6.7921,0.0295909091 0.1922,6.54184545 0.104272727,14.6500364" id="path-15"></path>
        <path d="M0.104272727,14.6500364 C0.0157818182,22.8126182 6.56129091,29.5012909 14.7235909,29.5897818 C22.8861727,29.6785545 29.5751273,23.1333273 29.6636182,14.9707455 C29.7521091,6.80816364 23.2068818,0.119490909 15.0443,0.0307181818 C14.9899091,0.0301545455 14.9349545,0.0298727273 14.8808455,0.0298727273 C6.7921,0.0295909091 0.1922,6.54184545 0.104272727,14.6500364" id="path-17"></path>
        <polygon id="path-19" points="0.0522092032 0.0653536364 15.4163 0.0653536364 15.4163 15.5704264 0.0522092032 15.5704264"></polygon>
    </defs>
    <g id="Page-1" stroke="none" stroke-width="1" fill="none" fill-rule="evenodd">
        <g id="Artboard-1" transform="translate(-15.000000, -14.000000)">
            <g id="Group" transform="translate(15.000000, 14.000000)">
                <g id="Group-3" transform="translate(3.663636, 1.168700)">
                    <mask id="mask-2" fill="white">
                        <use xlink:href="#path-1"></use>
                    </mask>
                    <g id="Clip-2"></g>
                    <path d="M29.6636464,14.9707736 C29.7521373,6.80819182 23.20691,0.119519091 15.0443282,0.0307463636 C6.88174636,-0.0577445455 0.193073636,6.48748273 0.104582727,14.6500645 C0.01581,22.8126464 6.56103727,29.5013191 14.7236191,29.5900918 C22.8862009,29.6785827 29.5751555,23.1333555 29.6636464,14.9707736" id="Fill-1" fill="#7E50E5" mask="url(#mask-2)"></path>
                </g>
                <g id="Group-28" transform="translate(3.663636, 1.168700)">
                    <g id="Group-6">
                        <mask id="mask-4" fill="white">
                            <use xlink:href="#path-3"></use>
                        </mask>
                        <g id="Clip-5"></g>
                        <path d="M22.7292,21.7036636 C23.1105,21.9234818 23.4689727,22.1478091 23.8037727,22.3718545 C23.3954182,22.0883455 23.0304636,21.8688091 22.7292,21.7036636" id="Fill-4" fill="#BA8271" mask="url(#mask-4)"></path>
                    </g>
                    <g id="Group-9">
                        <mask id="mask-6" fill="white">
                            <use xlink:href="#path-5"></use>
                        </mask>
                        <g id="Clip-8"></g>
                        <path d="M18.4560473,27.3053073 C18.3430382,27.39408 18.2117109,27.4388891 18.0646018,27.4388891 C18.0296564,27.4388891 17.9938655,27.4363527 17.9569473,27.43128 C17.1238927,27.3162982 16.0476291,25.8499982 16.0019745,25.7877164 C15.9582927,25.7276891 15.9715382,25.6434255 16.0315655,25.5997436 C16.0915927,25.55578 16.1755745,25.5693073 16.2192564,25.6293345 C16.5103745,26.0286709 17.3961291,27.0826709 17.9941473,27.1652436 C18.1113836,27.1818709 18.2083291,27.1581982 18.2897745,27.0939436 C18.8317109,26.6672709 18.2460927,25.2063255 17.9747018,24.6793255 C17.9408836,24.6130982 17.9668109,24.5319345 18.0327564,24.4981164 C18.0989836,24.4640164 18.1801473,24.4905073 18.2139655,24.5558891 C18.3241564,24.7703527 19.2676836,26.6664255 18.4560473,27.3053073 M13.6208927,28.29928 C13.5811564,28.3091436 13.5448018,28.3136527 13.5112655,28.3136527 C13.4055836,28.3136527 13.3294927,28.2710982 13.2804564,28.2296709 C12.9870836,27.9827982 13.0163927,27.25768 13.0893836,26.2606073 C13.1130564,25.9384891 13.1443382,25.5157618 13.11982,25.3384982 C13.00512,25.4554527 12.8402564,25.7671436 12.7035745,26.0255709 C12.3287564,26.7334982 11.86122,27.6144618 11.2477018,27.2898073 C10.3805473,26.8321345 11.2186745,24.5485618 11.3170291,24.2895709 C11.34352,24.2202436 11.4207382,24.18558 11.4906291,24.2117891 C11.5596745,24.23828 11.5949018,24.31578 11.5684109,24.3851073 C11.2296655,25.2773436 10.8768291,26.7901436 11.3728291,27.0519527 C11.7499018,27.2511982 12.1469836,26.5021255 12.46572,25.89988 C12.7303473,25.4002164 12.8895745,25.1141709 13.0868473,25.0420255 C13.1533564,25.0175073 13.2218382,25.0270891 13.2753836,25.0671073 C13.4309473,25.1846255 13.4129109,25.5239345 13.3576745,26.2803345 C13.3117382,26.9039982 13.2426927,27.8463982 13.4534927,28.0242255 C13.4715291,28.0394436 13.4977382,28.0526891 13.5557927,28.0385982 C14.3584109,27.8385073 15.0860655,26.1143436 15.0491473,25.8694436 C15.0378745,25.7961709 15.08832,25.7276891 15.1618745,25.7164164 C15.2357109,25.7048618 15.3036291,25.7558709 15.31462,25.8291436 C15.3746473,26.2242527 14.5508927,28.0676255 13.6208927,28.29928 M17.9132655,20.9545345 C17.0432927,20.7265436 16.0200109,20.5878891 14.8267927,20.6067709 C13.4458836,20.6287527 12.2132109,20.7121709 11.1493473,20.9418527 C10.8821836,20.6011345 10.2850109,20.4703709 9.44829273,20.6169164 C6.64251091,21.6148345 4.56241091,23.1986527 3.45571091,24.1802255 C4.26903818,25.1710982 5.20946545,26.0529073 6.25134727,26.8042345 C6.56501091,26.2828709 6.90572909,25.8305527 7.27434727,25.4498164 L7.39073818,23.9000982 C7.39609273,23.82598 7.46401091,23.7729982 7.53474727,23.7760982 C7.60858364,23.7814527 7.66438364,23.8462709 7.65874727,23.9201073 L7.38651091,27.54598 C9.54044727,28.8166982 12.0438382,29.56098 14.7236473,29.5900073 C17.4561564,29.6195982 20.0212655,28.9029345 22.2312836,27.6341891 L22.0667018,24.0753891 C22.0630382,24.0012709 22.1205291,23.9384255 22.1946473,23.9350436 C22.2707382,23.9302527 22.3316109,23.9888709 22.3349927,24.0632709 L22.4220745,25.9429982 C22.6869836,26.2710345 22.9349836,26.6399345 23.1657927,27.0502618 C24.2358564,26.3248618 25.2053109,25.4630618 26.0504836,24.4890982 C24.9229291,23.4331255 22.6734564,21.6235709 19.5852927,20.5577345 C18.8570745,20.5013709 18.2303109,20.6346709 17.9132655,20.9545345" id="Fill-7" fill="#BA8271" mask="url(#mask-6)"></path>
                    </g>
                    <g id="Group-12">
                        <mask id="mask-8" fill="white">
                            <use xlink:href="#path-7"></use>
                        </mask>
                        <g id="Clip-11"></g>
                        <path d="M22.7292,21.7036636 C21.3905636,20.9314818 19.7757455,20.2187636 17.9253273,19.8053364 C17.8543091,19.7904 17.7810364,19.8349273 17.7649727,19.9073545 C17.7489091,19.9797818 17.7945636,20.0516455 17.8669909,20.0679909 C18.4655727,20.2015727 19.0379455,20.3686909 19.5852364,20.5575091 C22.6736818,21.6236273 24.9228727,23.4331818 26.0504273,24.4891545 C26.1090455,24.4215182 26.1687909,24.3547273 26.2262818,24.2862455 C25.6713818,23.7674182 24.8527,23.0733 23.8037727,22.3718545 C23.4689727,22.1478091 23.1105,21.9234818 22.7292,21.7036636" id="Fill-10" fill="#524666" mask="url(#mask-8)"></path>
                    </g>
                    <g id="Group-15">
                        <mask id="mask-10" fill="white">
                            <use xlink:href="#path-9"></use>
                        </mask>
                        <g id="Clip-14"></g>
                        <path d="M11.6630736,20.0004109 C11.7357827,19.9857564 11.7828464,19.91502 11.7684736,19.8423109 C11.7538191,19.76932 11.6830827,19.7219745 11.6100918,19.7369109 C7.63335545,20.5353018 4.69765545,22.7233382 3.28771909,23.9709473 C3.34323727,24.0414018 3.39903727,24.1112927 3.45568273,24.1803382 C4.56238273,23.1984836 6.64248273,21.6146655 9.44826455,20.6170291 C10.1437918,20.3695927 10.8821555,20.1571018 11.6630736,20.0004109" id="Fill-13" fill="#524666" mask="url(#mask-10)"></path>
                    </g>
                    <g id="Group-18">
                        <mask id="mask-12" fill="white">
                            <use xlink:href="#path-11"></use>
                        </mask>
                        <g id="Clip-17"></g>
                        <path d="M22.3350773,24.0631864 C22.3316955,23.9890682 22.2708227,23.9301682 22.1947318,23.9349591 C22.1206136,23.9383409 22.0631227,24.0014682 22.0665045,24.0753045 L22.2310864,27.6341045 C22.3190136,27.5836591 22.4066591,27.5337773 22.4931773,27.4819227 L22.4444227,26.4265136 C22.6180227,26.6700045 22.7811955,26.9301227 22.9342227,27.2057409 C23.0122864,27.1550136 23.0889409,27.1025955 23.1658773,27.0504591 C22.9350682,26.63985 22.6870682,26.27095 22.4221591,25.9429136 L22.3350773,24.0631864 Z" id="Fill-16" fill="#524666" mask="url(#mask-12)"></path>
                    </g>
                    <g id="Group-21">
                        <mask id="mask-14" fill="white">
                            <use xlink:href="#path-13"></use>
                        </mask>
                        <g id="Clip-20"></g>
                        <path d="M7.65874727,23.9200227 C7.66438364,23.8461864 7.60858364,23.78165 7.53474727,23.7760136 C7.46401091,23.7729136 7.39609273,23.8261773 7.39073818,23.9000136 L7.27434727,25.4497318 C6.90572909,25.8304682 6.56501091,26.2827864 6.25134727,26.80415 C6.32631091,26.8582591 6.39958364,26.9149045 6.47567455,26.9676045 C6.70958364,26.5736227 6.96462909,26.2140227 7.24109273,25.8921864 L7.12836545,27.3939955 C7.21347455,27.4464136 7.30055636,27.49545 7.38651091,27.5461773 L7.65874727,23.9200227 Z" id="Fill-19" fill="#524666" mask="url(#mask-14)"></path>
                    </g>
                    <g id="Group-24">
                        <mask id="mask-16" fill="white">
                            <use xlink:href="#path-15"></use>
                        </mask>
                        <g id="Clip-23"></g>
                        <path d="M15.16179,25.7165291 C15.0882355,25.72752 15.03779,25.7962836 15.0490627,25.8695564 C15.0862627,26.1144564 14.3583264,27.83862 13.5557082,28.0387109 C13.4976536,28.0528018 13.4717264,28.0395564 13.4534082,28.0240564 C13.2426082,27.8465109 13.3119355,26.9041109 13.35759,26.2801655 C13.4131082,25.5240473 13.4311445,25.1847382 13.2752991,25.0669382 C13.2217536,25.02692 13.1532718,25.01762 13.0867627,25.0421382 C12.88949,25.1140018 12.7302627,25.4003291 12.4659173,25.8997109 C12.1468991,26.5022382 11.7500991,27.2513109 11.3730264,27.0520655 C10.8767445,26.7899745 11.2295809,25.2771745 11.5683264,24.38522 C11.5948173,24.3156109 11.5598718,24.2381109 11.4905445,24.21162 C11.4206536,24.1854109 11.3434355,24.2200745 11.3169445,24.2896836 C11.21859,24.5483927 10.3804627,26.8322473 11.2476173,27.2896382 C11.8611355,27.6142927 12.3289536,26.7333291 12.70349,26.0256836 C12.8404536,25.7669745 13.0053173,25.4555655 13.1197355,25.3386109 C13.1442536,25.5158745 13.1129718,25.9386018 13.0895809,26.2604382 C13.0163082,27.2577927 12.9869991,27.9829109 13.2803718,28.2297836 C13.3294082,28.2709291 13.4057809,28.3134836 13.5114627,28.3134836 C13.5447173,28.3134836 13.5813536,28.3092564 13.6208082,28.2993927 C14.55109,28.0674564 15.3748445,26.2243655 15.3148173,25.8292564 C15.3038264,25.7557018 15.2356264,25.7046927 15.16179,25.7165291" id="Fill-22" fill="#524666" mask="url(#mask-16)"></path>
                    </g>
                    <g id="Group-27">
                        <mask id="mask-18" fill="white">
                            <use xlink:href="#path-17"></use>
                        </mask>
                        <g id="Clip-26"></g>
                        <path d="M18.0327,24.4980882 C17.9667545,24.5319064 17.9408273,24.61307 17.9746455,24.6792973 C18.2463182,25.2062973 18.8319364,26.6675245 18.2897182,27.0941973 C18.2082727,27.15817 18.1113273,27.1818427 17.9940909,27.1652155 C17.3960727,27.0826427 16.5103182,26.0286427 16.2194818,25.6293064 C16.1755182,25.5692791 16.0915364,25.5557518 16.0315091,25.5997155 C15.9714818,25.6436791 15.9585182,25.7276609 16.0019182,25.7876882 C16.0475727,25.84997 17.1241182,27.31627 17.9571727,27.4312518 C17.9938091,27.4363245 18.0296,27.4391427 18.0648273,27.4391427 C18.2116545,27.4391427 18.3429818,27.3943336 18.4559909,27.3052791 C19.2676273,26.6663973 18.3241,24.7703245 18.2139091,24.5561427 C18.1800909,24.4904791 18.0989273,24.4639882 18.0327,24.4980882" id="Fill-25" fill="#524666" mask="url(#mask-18)"></path>
                    </g>
                </g>
                <g id="Group-86" transform="translate(0.000000, 0.041427)">
                    <path d="M18.3021182,5.18246727 C18.3021182,5.18246727 16.5773909,0.794276364 19.2560727,0.399730909 C21.6196818,0.0516854545 21.8265364,3.34980364 21.2815,4.85048545" id="Fill-29" fill="#BA8271"></path>
                    <path d="M18.3021182,5.31692273 C18.2485727,5.31692273 18.1978455,5.28451364 18.1769909,5.23181364 C18.1335909,5.12105909 17.1215818,2.50606818 17.9366,1.09951364 C18.2060182,0.634231818 18.6434,0.354104545 19.2363455,0.266740909 C19.9617455,0.160213636 20.5693455,0.378340909 20.9932,0.897731818 C21.8361182,1.93115909 21.7755273,3.88387727 21.4077545,4.89645 C21.3823909,4.96605909 21.3048909,5.00185 21.2355636,4.97676818 C21.1656727,4.95140455 21.1296,4.87418636 21.1549636,4.80457727 C21.4923,3.87626818 21.5545818,2.01119545 20.7846545,1.06766818 C20.4191364,0.619295455 19.9110182,0.43865 19.2755182,0.532777273 C18.7603545,0.608586364 18.3985,0.837986364 18.1691,1.23422273 C17.4186182,2.52974091 18.4171,5.10753182 18.4272455,5.13345909 C18.4543,5.20250455 18.4204818,5.28056818 18.3511545,5.30762273 C18.3350909,5.31382273 18.3184636,5.31692273 18.3021182,5.31692273" id="Fill-31" fill="#524666"></path>
                    <path d="M37.5229918,15.0168509 C37.7498555,12.5498145 36.1046009,10.3815055 33.8483645,10.1740873 C31.5918464,9.96638727 29.5788191,11.7982055 29.3519555,14.2652418 C29.1250918,16.7322782 30.7700645,18.9005873 33.0265827,19.1080055 C35.2831009,19.3157055 37.2961282,17.4838873 37.5229918,15.0168509" id="Fill-33" fill="#EFD1C4"></path>
                    <path d="M33.4997836,10.2923945 C31.4546291,10.2923945 29.6915745,12.0427673 29.4858473,14.2775855 C29.2663109,16.66684 30.8599927,18.7739945 33.0387291,18.9743673 C33.1503291,18.9845127 33.2633382,18.9895855 33.3749382,18.9895855 C35.4203745,18.9898673 37.1837109,17.2394945 37.3891564,15.0046764 C37.4959655,13.8447127 37.1837109,12.7171582 36.5098836,11.8294309 C35.8388745,10.9450855 34.8894291,10.40484 33.8362745,10.3078945 C33.7243927,10.2977491 33.6113836,10.2923945 33.4997836,10.2923945 M33.3749382,19.25844 C33.2551655,19.25844 33.1337018,19.2530855 33.0142109,19.2420945 C30.6878018,19.0279127 28.9850564,16.7899945 29.21812,14.2530673 C29.4362473,11.8812855 31.3171018,10.02354 33.4997836,10.02354 C33.6195564,10.02354 33.74102,10.0291764 33.8607927,10.0401673 C34.9900382,10.1441582 36.0068382,10.7218855 36.7240655,11.6668218 C37.4384745,12.6083764 37.7698927,13.80244 37.6568836,15.0291945 C37.4387564,17.4006945 35.5579018,19.25844 33.3749382,19.25844" id="Fill-35" fill="#524666"></path>
                    <path d="M36.0101918,14.84187 C36.0059645,14.84187 36.0020191,14.8415882 35.9977918,14.8413064 C35.9236736,14.8345427 35.8692827,14.7691609 35.8760464,14.6953245 C36.0110373,13.2273336 35.0339736,11.9332245 33.6978736,11.8103518 C33.05251,11.7503245 32.4203918,11.9707064 31.9173464,12.4283791 C31.4106373,12.8894336 31.0955645,13.5362064 31.0299009,14.2492064 C31.0231373,14.3233245 30.9555009,14.3774336 30.8839191,14.3709518 C30.8098009,14.3641882 30.75541,14.2985245 30.7621736,14.2246882 C30.8340373,13.4443336 31.18011,12.7358427 31.7364191,12.2296973 C32.29611,11.7204518 33.0015009,11.4755518 33.7223918,11.5426245 C35.2061645,11.6790245 36.2922918,13.1044609 36.1437736,14.7198427 C36.1372918,14.7894518 36.0786736,14.84187 36.0101918,14.84187" id="Fill-37" fill="#524666"></path>
                    <path d="M0.146601818,14.6113145 C-0.0267163636,12.1397691 1.66503818,10.0078145 3.92550182,9.84943273 C6.18596545,9.69076909 8.15869273,11.5657055 8.33201091,14.0372509 C8.50532909,16.5085145 6.81357455,18.6407509 4.55311091,18.7991327 C2.29292909,18.9577964 0.31992,17.0825782 0.146601818,14.6113145" id="Fill-39" fill="#EFD1C4"></path>
                    <path d="M4.19215818,9.97456 C4.10704909,9.97456 4.02109455,9.97766 3.93485818,9.98357818 C1.75217636,10.1366055 0.11284,12.2085327 0.280521818,14.6020145 C0.44764,16.9785873 2.35385818,18.8168873 4.54386727,18.6649873 C5.59899455,18.5911509 6.55999455,18.0714782 7.24988545,17.2020691 C7.94259455,16.3287145 8.27936727,15.2082055 8.19792182,14.0465509 C8.03784909,11.76326 6.27845818,9.97456 4.19215818,9.97456 M4.28656727,18.94286 C2.05992182,18.94286 0.182730909,17.0445327 0.0125127273,14.6208964 C-0.165596364,12.07946 1.58562182,9.87874182 3.91597636,9.71528727 C6.26380364,9.55239636 8.28894909,11.5048327 8.46593091,14.0276691 C8.55216727,15.2566782 8.19510364,16.4431327 7.46040364,17.3691873 C6.72316727,18.2983418 5.69396727,18.8538055 4.56274909,18.9332782 C4.47031273,18.93976 4.37787636,18.94286 4.28656727,18.94286" id="Fill-41" fill="#524666"></path>
                    <path d="M1.66582727,14.4692782 C1.59593636,14.4692782 1.53675455,14.4151691 1.53196364,14.3444327 C1.41839091,12.7259509 2.53523636,11.3247509 4.02154545,11.2201964 C4.74553636,11.1694691 5.44388182,11.4287418 5.9923,11.9503873 C6.53761818,12.4686509 6.86819091,13.1844691 6.92286364,13.9662327 C6.92821818,14.0400691 6.87241818,14.1043236 6.7983,14.1096782 C6.71939091,14.1124964 6.65992727,14.0589509 6.65485455,13.9851145 C6.60440909,13.2704236 6.30342727,12.6168873 5.80714545,12.1451236 C5.31368182,11.67646 4.68522727,11.4445236 4.04042727,11.4884873 C2.70179091,11.5823327 1.69710909,12.8550236 1.79997273,14.3255509 C1.80532727,14.3993873 1.74952727,14.4636418 1.67540909,14.4689964 C1.67202727,14.4689964 1.66892727,14.4692782 1.66582727,14.4692782" id="Fill-43" fill="#524666"></path>
                    <path d="M31.4070018,13.6345609 C31.35402,18.5145245 26.0744382,22.4140427 18.48902,22.3317518 C10.9038836,22.2494609 6.23810182,18.2422882 6.29108364,13.3620427 C6.34406545,8.48207909 11.09552,4.57692455 18.6809382,4.65921545 C26.2660745,4.74150636 31.4599836,8.75459727 31.4070018,13.6345609" id="Fill-45" fill="#BA8271"></path>
                    <path d="M15.3512,22.1970145 C15.3433091,22.1970145 15.3354182,22.1964509 15.3275273,22.1950418 C14.7926364,22.0992236 14.4274,22.0036873 14.4121818,21.9997418 C9.35439091,20.8290691 6.11263636,17.4376691 6.1566,13.3606055 C6.20394545,9.01806909 9.83207273,5.64047818 15.3993909,4.75556909 C15.4732273,4.74345091 15.5417091,4.79361455 15.5532636,4.86688727 C15.5651,4.94016 15.5149364,5.00920545 15.4419455,5.02076 C10.0101818,5.88425091 6.47110909,9.15897818 6.42545455,13.3634236 C6.38205455,17.3700327 9.46711818,20.5790964 14.4767182,21.7387782 C14.4840455,21.7407509 14.8512545,21.8368509 15.3745909,21.9304145 C15.4478636,21.9433782 15.4963364,22.0132691 15.4833727,22.08626 C15.4718182,22.15136 15.4151727,22.1970145 15.3512,22.1970145" id="Fill-47" fill="#524666"></path>
                    <path d="M21.4226064,22.2923818 C21.3566609,22.2923818 21.29917,22.2439091 21.2895882,22.1768364 C21.2791609,22.1032818 21.3304518,22.0353636 21.4040064,22.0246545 C21.8656245,21.9601182 22.2164882,21.8936091 22.21987,21.8927636 C27.5918882,20.9131636 31.2295973,17.5939091 31.2724336,13.6332364 C31.32147,9.1295 26.9017155,5.53603636 20.5244518,4.8949 C20.4506155,4.88757273 20.3967882,4.82162727 20.4041155,4.74779091 C20.4117245,4.67395455 20.4793609,4.61956364 20.5515064,4.62745455 C27.0724973,5.28324545 31.5917336,8.98774545 31.5412882,13.6360545 C31.4970427,17.7294636 27.7708427,21.1538364 22.2691882,22.1573909 C22.2666518,22.1576727 21.9095882,22.2253091 21.4414882,22.2912545 C21.4352882,22.2921 21.4288064,22.2923818 21.4226064,22.2923818" id="Fill-49" fill="#524666"></path>
                    <path d="M14.9647709,7.03733818 C14.9647709,7.03733818 16.0376527,10.1054927 17.1874709,9.78365636 C18.3370073,9.46182 18.19018,6.69774727 18.19018,6.69774727 C18.19018,6.69774727 19.8886982,10.1880655 21.1270073,10.1959564 C22.4104073,10.2044109 22.2765436,6.63800182 22.2765436,6.63800182 C22.2765436,6.63800182 29.6638436,7.24447455 29.5902891,14.0253018 C29.5167345,20.8058473 19.0931255,20.9315382 18.4618527,20.9247745 C17.83058,20.9177291 7.90156182,20.5237473 7.97596182,13.6713382 C8.05036182,6.81892909 14.9647709,7.03733818 14.9647709,7.03733818" id="Fill-51" fill="#EFD1C4"></path>
                    <path d="M14.0215818,13.6290936 C14.0297545,12.8800209 13.4289182,12.2659391 12.6795636,12.2577664 C11.9304909,12.2495936 11.3164091,12.85043 11.3082364,13.5997845 C11.3003455,14.3488573 11.9011818,14.9629391 12.6502545,14.9711118 C13.3993273,14.9790027 14.0134091,14.3781664 14.0215818,13.6290936" id="Fill-53" fill="#524666"></path>
                    <path d="M10.5178491,11.1305218 C10.4609218,11.1305218 10.4031491,11.1195309 10.3473491,11.0967036 C10.1185127,11.0022945 10.0094491,10.7404855 10.1038582,10.5116491 C10.1373945,10.42964 10.9476218,8.50961273 12.8969582,8.69786727 C13.5442945,8.75958545 14.10004,9.05634 14.5038855,9.55656727 C14.6594491,9.74904909 14.6292945,10.0311491 14.4368127,10.1867127 C14.2443309,10.3419945 13.9622309,10.3121218 13.8066673,10.1193582 C13.5507764,9.80259455 13.2252764,9.62927636 12.8118491,9.58982182 C11.5183036,9.46525818 10.9377582,10.8391218 10.9324036,10.8529309 C10.8611036,11.0259673 10.6939855,11.1305218 10.5178491,11.1305218" id="Fill-55" fill="#524666"></path>
                    <path d="M23.2450964,13.7291673 C23.2532691,12.9800945 23.8673509,12.3792582 24.6164236,12.3871491 C25.3654964,12.3953218 25.9663327,13.0094036 25.9584418,13.7584764 C25.9502691,14.5078309 25.3361873,15.1086673 24.5871145,15.1004945 C23.83776,15.0923218 23.2369236,14.47824 23.2450964,13.7291673" id="Fill-57" fill="#524666"></path>
                    <path d="M26.8119845,11.3073064 C26.6327482,11.3073064 26.4636573,11.1990882 26.3946118,11.0221064 C26.3709391,10.9623609 25.8281573,9.62372455 24.5419391,9.71728818 C24.12823,9.74772455 23.7990664,9.91371545 23.5358482,10.2251245 C23.3760573,10.4145064 23.09283,10.4378973 22.9045755,10.2781064 C22.7154755,10.1185973 22.6915209,9.83593364 22.8513118,9.64683364 C23.26643,9.15590636 23.8283755,8.87098818 24.4765573,8.82364273 C26.4219482,8.68019727 27.1977936,10.6148791 27.2296391,10.6974518 C27.3189755,10.9279791 27.2042755,11.1875336 26.9734664,11.27687 C26.9202027,11.2974427 26.8658118,11.3073064 26.8119845,11.3073064" id="Fill-59" fill="#524666"></path>
                    <path d="M18.5639555,14.9174818 L18.5625464,14.9174818 C18.0259645,14.9118455 17.5604009,14.6308727 17.14951,14.3828727 C16.7008555,14.1123273 16.4145282,13.9542273 16.2045736,14.1089455 C16.1448282,14.1529091 16.0608464,14.1399455 16.0166009,14.0804818 C15.9726373,14.0210182 15.9853191,13.9367545 16.0450645,13.8925091 C16.4103009,13.6228091 16.8369736,13.8803909 17.2884464,14.1529091 C17.6697464,14.3828727 18.1020555,14.6435545 18.5653645,14.6486273 C18.6394827,14.6494727 18.6992282,14.7103455 18.6983827,14.7844636 C18.6975373,14.8583 18.63751,14.9174818 18.5639555,14.9174818" id="Fill-61" fill="#524666"></path>
                    <path d="M18.5795118,14.9174818 L18.5626027,14.9174818 C18.4882027,14.9166364 18.4287391,14.8557636 18.4295845,14.7816455 C18.43043,14.7078091 18.4904573,14.6486273 18.5640118,14.6486273 C18.5688027,14.6491909 18.5741573,14.6486273 18.57923,14.6486273 C19.0374664,14.6486273 19.4703391,14.4000636 19.8530482,14.1805273 C20.3104391,13.9178727 20.7427482,13.6698727 21.1015027,13.9474636 C21.1604027,13.9928364 21.1713936,14.0771 21.1260209,14.136 C21.0806482,14.1943364 20.9963845,14.2056091 20.9374845,14.1602364 C20.7309118,14.0007273 20.4414845,14.1529091 19.9869118,14.4138727 C19.5748936,14.6500364 19.1090482,14.9174818 18.5795118,14.9174818" id="Fill-63" fill="#524666"></path>
                    <path d="M14.7170809,5.39712818 C14.7170809,5.39712818 10.5836536,2.89514636 12.3824991,0.919600909 C13.9060082,-0.754117273 17.8010173,2.23371909 18.1944355,4.71061909" id="Fill-65" fill="#BA8271"></path>
                    <path d="M14.7169682,5.53149909 C14.6932955,5.53149909 14.6693409,5.52529909 14.6473591,5.51205364 C14.5416773,5.44808091 12.0537864,3.92457182 11.8133955,2.26579 C11.7367409,1.73879 11.8948409,1.25547182 12.2831864,0.829080909 C12.7614318,0.303771818 13.47725,0.16399 14.3551136,0.426644545 C16.1655136,0.967735455 18.0587682,2.99964455 18.3270591,4.68942636 C18.3388955,4.76269909 18.2887318,4.83174455 18.2157409,4.84329909 C18.1419045,4.85682636 18.0734227,4.80497182 18.0618682,4.73198091 C17.8116136,3.15774455 15.97275,1.19093545 14.2781773,0.684226364 C13.7399045,0.52359 12.9919591,0.449753636 12.4818682,1.01000818 C12.1459409,1.37919 12.0143318,1.77739909 12.0794318,2.22718091 C12.3015045,3.76027182 14.7620591,5.26715364 14.7868591,5.28209 C14.8502682,5.32069909 14.8705591,5.40327182 14.8322318,5.46668091 C14.8068682,5.50839 14.7623409,5.53149909 14.7169682,5.53149909" id="Fill-67" fill="#524666"></path>
                    <path d="M18.6064818,18.0728027 C17.6818364,18.0728027 16.8716091,17.9741664 16.2025727,17.8431209 C14.2002545,17.4511118 13.0222545,16.7110573 12.9729364,16.6797755 C12.9103727,16.6400391 12.8920545,16.5569027 12.9317909,16.4943391 C12.9712455,16.4317755 13.0543818,16.4134573 13.1172273,16.4529118 C13.1637273,16.4825027 17.8297909,19.3674755 24.1833818,16.6003027 C24.0872818,16.5399936 23.8105364,16.4199391 23.0242636,16.2784664 C22.9509909,16.2652209 22.9025182,16.19533 22.9157636,16.1223391 C22.9290091,16.0493482 22.9980545,16.0008755 23.0718909,16.0138391 C24.2735636,16.2299936 24.4643545,16.4219118 24.4922545,16.5808573 C24.5102909,16.6817482 24.4508273,16.7660118 24.3840364,16.8049027 C22.2033273,17.7692845 20.2289091,18.0728027 18.6064818,18.0728027" id="Fill-69" fill="#524666"></path>
                    <path d="M59.7884318,23.2230582 L59.7884318,9.33026727 C59.7884318,9.17836727 59.9115864,9.05521273 60.0634864,9.05521273 L62.9628318,9.05521273 C63.1147318,9.05521273 63.2378864,9.17836727 63.2378864,9.33026727 L63.2378864,11.0132855 C63.2378864,11.0132855 64.3764318,8.44676727 67.7574045,8.85934909 L67.7605045,8.85963091 C67.9267773,8.87964 68.0519045,9.02083091 68.0519045,9.18823091 L68.0519045,11.9940127 C68.0519045,12.1664855 67.9169136,12.3096491 67.7447227,12.3192309 C66.8076773,12.3705218 66.2942045,12.5866764 65.4814409,12.9674127 C64.58385,13.3881673 63.93905,14.0191582 63.5464773,14.8606673 L63.5464773,23.2154491 C63.5464773,23.5051582 63.3120045,23.7404764 63.0222955,23.7413218 L60.3157136,23.7486491 C60.0245955,23.7494945 59.7884318,23.5138945 59.7884318,23.2230582" id="Fill-71" fill="#45D0C1"></path>
                    <path d="M100.345591,23.2230582 L100.345591,9.36887636 C100.345591,9.19555818 100.485936,9.05521273 100.659255,9.05521273 L103.481382,9.05521273 C103.654418,9.05521273 103.795045,9.19555818 103.795045,9.36887636 L103.795045,11.0132855 C103.795045,11.0132855 104.933591,8.44676727 108.314564,8.85934909 L108.317664,8.85963091 C108.483936,8.87964 108.609064,9.02083091 108.609064,9.18823091 L108.609064,11.9940127 C108.609064,12.1664855 108.474073,12.3096491 108.301882,12.3192309 C107.364836,12.3705218 106.851364,12.5866764 106.0386,12.9674127 C105.141009,13.3881673 104.496209,14.0191582 104.103636,14.8606673 L104.103636,23.2154491 C104.103636,23.5051582 103.869164,23.7404764 103.579455,23.7413218 L100.872873,23.7486491 C100.581755,23.7494945 100.345591,23.5138945 100.345591,23.2230582" id="Fill-73" fill="#45D0C1"></path>
                    <path d="M91.3763609,20.3857691 C89.1046245,20.3857691 87.2632245,18.5440873 87.2632245,16.2726327 C87.2632245,14.0008964 89.1046245,12.1592145 91.3763609,12.1592145 C93.6480973,12.1592145 95.4894973,14.0008964 95.4894973,16.2726327 C95.4894973,18.5440873 93.6480973,20.3857691 91.3763609,20.3857691 M91.3763609,8.52009636 C87.0946973,8.52009636 83.6238245,11.9909691 83.6238245,16.2726327 C83.6238245,20.5540145 87.0946973,24.0248873 91.3763609,24.0248873 C95.6580245,24.0248873 99.1288973,20.5540145 99.1288973,16.2726327 C99.1288973,11.9909691 95.6580245,8.52009636 91.3763609,8.52009636" id="Fill-75" fill="#45D0C1"></path>
                    <g id="Group-79" transform="translate(108.781818, 8.454545)">
                        <mask id="mask-20" fill="white">
                            <use xlink:href="#path-19"></use>
                        </mask>
                        <g id="Clip-78"></g>
                        <path d="M12.0326782,9.03816273 C11.8565418,9.03816273 11.7018236,9.14891727 11.6378509,9.31293545 C11.0395509,10.8454627 9.54901455,11.9313082 7.80484182,11.9313082 C6.51749636,11.9313082 5.36908727,11.3392082 4.61494182,10.4131536 L11.91206,7.69868091 L14.9289236,6.51081727 C15.2146873,6.39837182 15.3699691,6.08893545 15.2899327,5.79246273 C14.3993873,2.49349909 11.3859055,0.0659172727 7.80568727,0.0653536364 C3.61899636,0.0650718182 0.216887273,3.33247182 0.0579418182,7.51606273 C-0.10974,11.9352536 3.42285091,15.5704264 7.80484182,15.5704264 C11.5724691,15.5704264 14.7124873,12.8827264 15.41196,9.31998091 C15.4404236,9.17456273 15.3288236,9.03872636 15.1805873,9.03872636 L12.0326782,9.03816273 Z M7.80484182,3.70475364 C9.16996909,3.70475364 10.3761509,4.37266273 11.1243782,5.39650818 L3.70833273,8.15494455 C3.69959636,8.04362636 3.69142364,7.93174455 3.69142364,7.81789 C3.69142364,5.54615364 5.53310545,3.70475364 7.80484182,3.70475364 Z" id="Fill-77" fill="#45D0C1" mask="url(#mask-20)"></path>
                    </g>
                    <path d="M82.6829464,9.16306455 C81.4499918,9.44770091 80.1409464,10.2663827 79.3403009,11.8321645 C79.2036191,12.09961 79.0807464,12.3876282 78.9767555,12.7001645 L76.67571,19.42491 L74.3819918,12.7221464 C74.2898373,12.4451191 74.18331,12.1861282 74.0649464,11.94461 C73.2234373,10.2252373 71.7763009,9.38091 70.4590827,9.14080091 C69.9780191,9.05343727 69.5141464,9.04554636 69.1035373,9.10613727 L74.3912918,23.3187918 C74.4842918,23.5710191 74.7246827,23.7387009 74.9935373,23.7387009 L78.1318645,23.7387009 C78.1871009,23.7387009 78.2403645,23.7299645 78.2925009,23.7164373 L78.36521,23.7164373 C78.6337827,23.7164373 78.8744555,23.5487555 78.9671736,23.2965282 L84.25521,9.08415545 C83.7831645,9.01426455 83.2409464,9.03427364 82.6829464,9.16306455" id="Fill-80" fill="#45D0C1"></path>
                    <path d="M52.4872836,6.32794545 L52.3066382,5.85251818 C52.13642,5.33566364 51.8371291,5.1274 51.13822,5.1274 L49.42392,5.1243 C48.7546018,5.1243 48.37302,5.41203636 48.1675745,5.99342727 L47.4447109,7.92078182 C49.1716927,6.52719091 51.1094745,6.3178 52.1079564,6.3178 C52.2497109,6.3178 52.3754018,6.32202727 52.4872836,6.32794545" id="Fill-82" fill="#45D0C1"></path>
                    <path d="M48.0553827,16.4512773 L50.2437009,10.5130864 L52.2733555,16.4512773 L48.0553827,16.4512773 Z M52.8175464,7.49058636 C52.8175464,7.49058636 52.5470009,7.44521364 52.1079282,7.44521364 C50.8095918,7.44521364 48.0370645,7.84370455 46.4242191,10.9803409 C46.3771555,11.0719318 46.3312191,11.1657773 46.2861282,11.2621591 C46.2675282,11.3021773 46.2486464,11.34135 46.2303282,11.3819318 C46.1697373,11.5172045 46.1102736,11.6555773 46.05391,11.7998682 L41.7358918,23.0610409 C41.6248555,23.3513136 41.8390373,23.6630045 42.1498827,23.6630045 L45.4296827,23.6630045 C45.6156827,23.6630045 45.7816736,23.5468955 45.8459282,23.37245 L47.4497555,19.0042682 L52.9311191,19.0042682 L54.5608736,23.3747045 C54.62541,23.5480227 54.7911191,23.6630045 54.9762736,23.6630045 L58.3118736,23.6630045 C58.6224373,23.6630045 58.8369009,23.3518773 58.7261464,23.0616045 L52.8175464,7.49058636 Z" id="Fill-84" fill="#45D0C1"></path>
                </g>
            </g>
        </g>
    </g>
</svg>